<?xml version="1.0" encoding="UTF-8"?>
<svg width="193px" height="200px" viewBox="0 0 193 200" version="1.1" xmlns="http://www.w3.org/2000/svg" xmlns:xlink="http://www.w3.org/1999/xlink">
    <!-- Generator: Sketch 51.2 (57519) - http://www.bohemiancoding.com/sketch -->
    <title>icon_04</title>
    <desc>Created with Sketch.</desc>
    <defs></defs>
    <g id="Page-1" stroke="none" stroke-width="1" fill="none" fill-rule="evenodd">
        <g id="Acquisition---04" transform="translate(-91.000000, -50.000000)" fill="#6633CC">
            <g id="icon_04" transform="translate(91.000000, 50.000000)">
                <path d="M25.1943163,6.27994228 C20.1782184,6.27994228 15.4792301,8.23376623 11.9333677,11.7748918 C8.38750539,15.3189033 6.4560194,20.02886 6.4560194,25.041847 C6.4560194,29.0764791 7.69562981,32.9177489 10.059538,36.1096681 L36.2354974,9.89033189 C33.064401,7.54689755 29.2302572,6.27994228 25.1943163,6.27994228 Z M9.88656914,44.4271284 L7.86859871,42.3867244 C3.22726671,37.7546898 0.69038959,31.5930736 0.69038959,25.041847 C0.69038959,18.4877345 3.22726671,12.3290043 7.86859871,7.69408369 C12.4811026,3.06204906 18.6503265,0.507936508 25.1943163,0.507936508 C31.7383061,0.507936508 37.8787019,3.06204906 42.5200339,7.69408369 L44.5380043,9.73448773 L9.88656914,44.4271284 Z" id="Fill-117"></path>
                <path d="M157.400208,9.89033189 L183.576167,36.1096681 C185.911247,32.9177489 187.179686,29.0764791 187.179686,25.041847 C187.179686,20.02886 185.2482,15.3189033 181.702338,11.7748918 C178.156475,8.23376623 173.457487,6.27994228 168.441389,6.27994228 C164.434276,6.27994228 160.571304,7.54689755 157.400208,9.89033189 Z M183.749136,44.4271284 L149.097701,9.73448773 L151.115671,7.69408369 C155.757003,3.06204906 161.897399,0.507936508 168.441389,0.507936508 C174.985379,0.507936508 181.154603,3.06204906 185.767107,7.69408369 C190.408439,12.3290043 192.945316,18.4877345 192.945316,25.041847 C192.945316,31.5930736 190.408439,37.7546898 185.767107,42.3867244 L183.749136,44.4271284 Z" id="Fill-118"></path>
                <path d="M96.8322667,13.0591631 C50.7072282,13.0591631 13.2306344,50.6031746 13.2306344,96.7532468 C13.2306344,142.903319 50.7072282,180.44733 96.8322667,180.44733 C142.928477,180.44733 180.433899,142.903319 180.433899,96.7532468 C180.433899,50.6031746 142.928477,13.0591631 96.8322667,13.0591631 Z M96.8322667,186.219336 C47.5361318,186.219336 7.46500462,146.083694 7.46500462,96.7532468 C7.46500462,47.4227994 47.5361318,7.28715729 96.8322667,7.28715729 C146.099573,7.28715729 186.199529,47.4227994 186.199529,96.7532468 C186.199529,146.083694 146.099573,186.219336 96.8322667,186.219336 Z" id="Fill-119"></path>
                <polyline id="Fill-120" points="140.07449 99.6392496 93.9494518 99.6392496 93.9494518 39.033189 99.7150816 39.033189 99.7150816 93.8672439 140.07449 93.8672439 140.07449 99.6392496"></polyline>
                <polyline id="Fill-121" points="27.068146 199.463203 22.426814 196.063492 43.4713628 167.203463 48.1126948 170.603175 27.068146 199.463203"></polyline>
                <polyline id="Fill-122" points="166.538731 199.417027 146.359027 170.556999 151.058015 167.249639 171.237719 196.109668 166.538731 199.417027"></polyline>
            </g>
        </g>
    </g>
</svg>