<svg id="Layer_1" data-name="Layer 1" xmlns="http://www.w3.org/2000/svg" viewBox="0 0 600 600"><defs><style>.cls-1{fill:#5627d8;}</style></defs><title>lightbuld</title><g id="Onboarding---Acquisition"><g id="Onboarding---Acquisition---02"><g id="icon_02" data-name="icon 02"><path id="Fill-54" class="cls-1" d="M257.2,416.49h88.44c1-37.9,13.69-56.18,26-73.88,11.88-17.13,23.07-33.3,23.07-67.84,0-51.2-41.81-92.85-93.25-92.85s-93.25,41.65-93.25,92.85c0,34.54,11.19,50.71,23.06,67.84C243.5,360.31,256.17,378.59,257.2,416.49Zm98.21,9.78h-108v-4.89c0-38.2-11.78-55.21-24.25-73.22-12.22-17.61-24.83-35.81-24.83-73.39,0-56.59,46.23-102.62,103.07-102.62s103.07,46,103.07,102.62c0,37.58-12.62,55.78-24.84,73.39-12.46,18-24.24,35-24.24,73.22Z"/><path id="Fill-55" class="cls-1" d="M257.25,440.92h88.34V426.26H257.25Zm-9.82-24.43h108V450.7h-108Z"/><path id="Fill-56" class="cls-1" d="M257.25,465.36h88.34V450.7H257.25Zm-9.82-24.44h108v34.21h-108Z"/><path id="Fill-57" class="cls-1" d="M257.25,475.13v7.33a7.34,7.34,0,0,0,7.36,7.33h73.62a7.35,7.35,0,0,0,7.36-7.33v-7.33Zm81,24.44H264.61a17.17,17.17,0,0,1-17.18-17.11v-17.1h108v17.1A17.17,17.17,0,0,1,338.23,499.57Z"/><path id="Fill-58" class="cls-1" d="M281.79,499.57v7.33a7.35,7.35,0,0,0,7.36,7.33h22.08a7.35,7.35,0,0,0,7.37-7.33v-7.33ZM311.23,524H289.15A17.16,17.16,0,0,1,272,506.9V489.79h56.44V506.9A17.15,17.15,0,0,1,311.23,524Z"/></g></g></g></svg>