<svg id="Layer_1" data-name="Layer 1" xmlns="http://www.w3.org/2000/svg" viewBox="0 0 600 600"><defs><style>.cls-1{fill:#5627d8;}</style></defs><title>Artboard 1</title><g id="Page-1"><g id="Acquisition---02"><g id="icon_02" data-name="icon 02"><polygon id="Fill-170" class="cls-1" points="175.24 450.93 418.95 450.93 418.95 441.92 175.24 441.92 175.24 450.93"/><polygon id="Fill-171" class="cls-1" points="274.53 486.98 324.17 486.98 324.17 477.96 274.53 477.96 274.53 486.98"/><path id="Fill-172" class="cls-1" d="M199.31,83.78a19.58,19.58,0,0,0-19.56,19.56V494.4A19.57,19.57,0,0,0,199.31,514H394.88a19.57,19.57,0,0,0,19.56-19.55V103.34a19.58,19.58,0,0,0-19.56-19.56Zm197,441.49H200.14a29.43,29.43,0,0,1-29.42-29.38V104.11a29.43,29.43,0,0,1,29.42-29.38H396.3a29.43,29.43,0,0,1,29.42,29.38V495.89A29.43,29.43,0,0,1,396.3,525.27Z"/></g></g></g></svg>