<svg id="Layer_1" data-name="Layer 1" xmlns="http://www.w3.org/2000/svg" viewBox="0 0 201 200"><defs><style>.cls-1{fill:#5627d8;}</style></defs><title>Artboard 1</title><g id="Page-1"><g id="Acquisition---01"><g id="icon_01" data-name="icon 01"><path id="Fill-85" class="cls-1" d="M139.86,92.49l-1.42-3.38c21.13-9.13,30.78-42.6,33-51.55h-25V33.89H176l-.46,2.21a130.07,130.07,0,0,1-7.87,23.78c-7.43,16.88-16.79,27.85-27.81,32.61"/><path id="Fill-86" class="cls-1" d="M61.14,92.49c-11-4.76-20.38-15.73-27.81-32.61A130.07,130.07,0,0,1,25.46,36.1L25,33.89H54.57v3.67h-25c2.22,9,11.89,42.43,33,51.55l-1.42,3.38"/><path id="Fill-88" class="cls-1" d="M74.92,171.46h51.16c-.76-5.49-4.85-7.91-9.16-10.47-4.46-2.64-9.08-5.37-9.08-11.52,0-7.76,4.2-13.78,9.52-21.41,10.72-15.38,26.86-38.54,27.17-99.52H56.47c.31,61,16.45,84.14,27.17,99.52,5.32,7.63,9.52,13.65,9.52,21.41,0,6.15-4.62,8.88-9.08,11.52C79.77,163.55,75.68,166,74.92,171.46Zm54.94,3.66H71.14v-1.83c0-8.9,6.13-12.53,11.07-15.45,4.51-2.67,7.28-4.51,7.28-8.37,0-6.61-3.72-11.94-8.86-19.32C69.55,114.25,52.8,90.21,52.8,26.71V24.88h95.4v1.83c0,63.5-16.75,87.54-27.83,103.44-5.14,7.38-8.86,12.71-8.86,19.32,0,3.86,2.77,5.7,7.28,8.37,4.94,2.92,11.07,6.55,11.07,15.45Z"/></g></g></g></svg>