<svg id="Layer_1" data-name="Layer 1" xmlns="http://www.w3.org/2000/svg" viewBox="0 0 600 600"><defs><style>.cls-1{fill:#5627d8;}</style></defs><title>icon_3</title><g id="Page-1"><g id="Acquisition---03"><g id="icon_03" data-name="icon 03"><path id="Fill-150" class="cls-1" d="M435.41,435.41l-8.74-8.74c69.85-69.85,69.85-183.49,0-253.34A178.5,178.5,0,0,0,196.19,154L189,143.89a190.83,190.83,0,0,1,246.39,20.7c74.66,74.66,74.66,196.16,0,270.82"/><polyline id="Fill-151" class="cls-1" points="424.87 437.22 424.87 387.36 437.22 387.36 437.22 424.87 474.72 424.87 474.72 437.22 424.87 437.22"/><path id="Fill-152" class="cls-1" d="M164.59,435.41c-74.66-74.66-74.66-196.16,0-270.82l8.74,8.74c-69.85,69.85-69.85,183.49,0,253.34A178.5,178.5,0,0,0,403.81,446L411,456.11a190.83,190.83,0,0,1-246.39-20.7"/><polyline id="Fill-153" class="cls-1" points="162.78 212.64 162.78 175.13 125.28 175.13 125.28 162.78 175.13 162.78 175.13 212.64 162.78 212.64"/></g></g></g></svg>