<?xml version="1.0" encoding="UTF-8"?>
<svg width="201px" height="200px" viewBox="0 0 201 200" version="1.1" xmlns="http://www.w3.org/2000/svg" xmlns:xlink="http://www.w3.org/1999/xlink">
    <!-- Generator: Sketch 51.2 (57519) - http://www.bohemiancoding.com/sketch -->
    <title>icon_01</title>
    <desc>Created with Sketch.</desc>
    <defs></defs>
    <g id="Page-1" stroke="none" stroke-width="1" fill="none" fill-rule="evenodd">
        <g id="Acquisition---01" transform="translate(-87.000000, -50.000000)" fill="#6633CC">
            <g id="icon_01" transform="translate(87.000000, 50.000000)">
                <path d="M152.891368,90 L151,85.5085059 C179.128031,73.3536138 191.979631,28.8003384 194.962173,16.8873712 L161.645005,16.8873712 L161.645005,12 L201,12 L200.393792,14.9421974 C200.272551,15.5506751 197.217265,30.0490617 189.918526,46.5928131 C180.025218,69.0649456 167.561591,83.6684107 152.891368,90" id="Fill-85"></path>
                <path d="M48.1086324,90 C33.4384093,83.6684107 20.9747818,69.0649456 11.0814743,46.5928131 C3.78273521,30.0490617 0.727449079,15.5506751 0.606207565,14.9421974 L0,12 L39.3549952,12 L39.3549952,16.8873712 L6.06207565,16.8873712 C9.02036857,28.802782 21.8962173,73.3658323 50,85.5085059 L48.1086324,90" id="Fill-86"></path>
                <path d="M76.4840989,54.6346611 L88.4798587,66.4088139 L85.6515901,83.0338882 L100.5,75.186088 L115.34841,83.0338882 L112.49576,66.4088139 L124.515901,54.6346611 L107.912014,52.2092004 L100.5,37.0776605 L93.0636042,52.2092004 L76.4840989,54.6346611 Z M121.833922,92 L100.5,80.7261445 L79.1660777,92 L83.2378092,68.1230678 L66,51.2086058 L89.8452297,47.7261445 L100.5,26 L111.15477,47.7261445 L135,51.2086058 L117.737809,68.1230678 L121.833922,92 Z" id="Fill-87"></path>
                <path d="M66.4542308,195.121951 L134.545769,195.121951 C133.544423,187.817073 128.098077,184.592683 122.358654,181.195122 C116.423846,177.67561 110.269231,174.034146 110.269231,165.853659 C110.269231,155.529268 115.862115,147.507317 122.944808,137.35122 C137.207885,116.880488 158.700192,86.0536585 159.115385,4.87804878 L41.8846154,4.87804878 C42.2998077,86.0536585 63.7921154,116.880488 78.0551923,137.35122 C85.1378846,147.507317 90.7307692,155.529268 90.7307692,165.853659 C90.7307692,174.034146 84.5761538,177.67561 78.6413462,181.195122 C72.9019231,184.592683 67.4555769,187.817073 66.4542308,195.121951 Z M139.576923,200 L61.4230769,200 L61.4230769,197.560976 C61.4230769,185.714634 69.5803846,180.882927 76.1501923,177 C82.1582692,173.439024 85.8461538,170.995122 85.8461538,165.853659 C85.8461538,157.058537 80.8882692,149.960976 74.0498077,140.139024 C59.2982692,118.963415 37,86.9634146 37,2.43902439 L37,0 L164,0 L164,2.43902439 C164,86.9634146 141.701731,118.963415 126.950192,140.139024 C120.111731,149.960976 115.153846,157.058537 115.153846,165.853659 C115.153846,170.995122 118.841731,173.439024 124.849808,177 C131.419615,180.882927 139.576923,185.714634 139.576923,197.560976 L139.576923,200 Z" id="Fill-88"></path>
            </g>
        </g>
    </g>
</svg>