<?xml version="1.0" encoding="UTF-8"?>
<svg width="200px" height="173px" viewBox="0 0 200 173" version="1.1" xmlns="http://www.w3.org/2000/svg" xmlns:xlink="http://www.w3.org/1999/xlink">
    <!-- Generator: Sketch 51.2 (57519) - http://www.bohemiancoding.com/sketch -->
    <title>icon_03</title>
    <desc>Created with Sketch.</desc>
    <defs></defs>
    <g id="Page-1" stroke="none" stroke-width="1" fill="none" fill-rule="evenodd">
        <g id="Acquisition---03" transform="translate(-88.000000, -64.000000)" fill="#6633CC">
            <g id="icon_03" transform="translate(88.000000, 64.000000)">
                <path d="M98.225,50.4416667 L98.225,81.8083333 C97.8916667,81.7111111 97.4611111,81.5916667 97.0305556,81.4722222 C96.2444444,81.2527778 95.4527778,81.0361111 95.2638889,80.9638889 C85.1333333,78.0611111 80.4194444,73.075 80.4194444,65.2694444 C80.4194444,56.8777778 87.3916667,51.0916667 98.225,50.4416667 Z M103.375,122.630556 L103.375,88.8444444 L103.858333,88.9861111 C116.75,92.4638889 121.772222,97.2944444 121.772222,106.216667 C121.772222,115.469444 114.736111,121.730556 103.375,122.630556 Z M106.016667,83.7972222 L103.375,83.1666667 L103.375,50.4527778 C115.105556,51.4027778 120.536111,58.2805556 120.708333,64.7472222 L120.719444,65.1527778 L126.344444,65.1527778 L126.333333,64.7277778 C126.083333,53.9944444 116.875,46.2194444 103.375,45.2916667 L103.375,37.3388889 L98.225,37.3388889 L98.225,45.2277778 C83.6861111,46.0222222 74.675,53.8555556 74.675,65.7416667 C74.675,76.2166667 80.7555556,82.9083333 93.2638889,86.2027778 L98.225,87.5388889 L98.225,122.638889 C84.6861111,121.836111 78.4527778,113.930556 78.2888889,106.383333 L78.2805556,105.977778 L72.4833333,105.977778 L72.4861111,106.394444 C72.5472222,116.625 80.5305556,127.177778 98.225,127.861111 L98.225,135.741667 L103.375,135.741667 L103.375,127.730556 C118.280556,126.733333 127.516667,118.358333 127.516667,105.802778 C127.516667,94.3333333 121.088889,87.7527778 106.016667,83.7972222 Z" id="Fill-149"></path>
                <path d="M186.111111,86.5416667 L180.555556,86.5416667 C180.555556,42.1222222 144.419444,5.98611111 100,5.98611111 C60.4944444,5.98611111 27.0833333,34.2166667 20.5555556,73.1138889 L15.0777778,72.1916667 C22.0527778,30.6111111 57.7694444,0.430555556 100,0.430555556 C147.480556,0.430555556 186.111111,39.0611111 186.111111,86.5416667" id="Fill-150"></path>
                <polyline id="Fill-151" points="183.333333 90.4694444 167.480556 74.6166667 171.408333 70.6888889 183.333333 82.6138889 195.258333 70.6888889 199.186111 74.6166667 183.333333 90.4694444"></polyline>
                <path d="M100,172.652778 C52.5194444,172.652778 13.8888889,134.022222 13.8888889,86.5416667 L19.4444444,86.5416667 C19.4444444,130.961111 55.5805556,167.097222 100,167.097222 C139.505556,167.097222 172.916667,138.866667 179.444444,99.9694444 L184.922222,100.891667 C177.947222,142.472222 142.230556,172.652778 100,172.652778" id="Fill-152"></path>
                <polyline id="Fill-153" points="28.5916667 102.394444 16.6666667 90.4694444 4.74166667 102.394444 0.813888889 98.4666667 16.6666667 82.6138889 32.5194444 98.4666667 28.5916667 102.394444"></polyline>
            </g>
        </g>
    </g>
</svg>